<svg width="68" height="53" viewBox="0 0 68 53" fill="none" xmlns="http://www.w3.org/2000/svg">
<path d="M15.6351 14.7192L17.2779 5.40894L17.33 13.8058L25.39 15.1288L24.0307 24.5546L32.4988 25.6874L31.911 35.2493L39.2169 36.7997L38.6255 41.9049L37.9923 37.3701L29.462 36.3901L30.3507 27.3073L21.8653 25.8109L23.1623 16.538L15.6351 14.7192Z" fill="#FF0D0D" stroke="#FF0D0D"/>
<path d="M2.77573 35.5091L0.485104 26.3367L3.95189 33.9846L11.8521 31.911L14.4488 41.0734L22.6444 38.6599L26.001 47.6324L33.3051 46.0736L34.8438 50.9772L32.4189 47.0932L24.2288 49.6716L21.342 41.0141L12.9826 43.1026L10.3913 34.1052L2.77573 35.5091Z" fill="#FF0D0D" stroke="#FF0D0D"/>
<path d="M46.2497 5.84916L53.9817 0.408936L48.0954 6.3974L52.875 13.0207L45.2626 18.7429L50.4657 25.5193L43.304 31.8821L47.3887 38.1347L43.3683 41.3361L46.1184 37.6752L40.7634 30.9631L47.8004 25.1522L42.8415 18.1059L50.302 12.4481L46.2497 5.84916Z" fill="#FF0D0D" stroke="#FF0D0D"/>
</svg>
